<svg width="40" height="40" viewBox="0 0 40 40" fill="none" xmlns="http://www.w3.org/2000/svg">
<rect width="40" height="40" rx="20" fill="#313131"/>
<path d="M15.5 18.5C15.5 18.5 16.33 25.43 16.5 27C16.67 28.57 18 29 19 29H21C22.5 29 23.88 27.86 24 27C24.13 26.14 25 15 25 15" stroke="white" stroke-width="2" stroke-linecap="round" stroke-linejoin="round"/>
<path d="M16 12C17.1 11.43 18 11 20 11C22 11 24.5 11.5 24.5 14" stroke="white" stroke-width="2" stroke-linecap="round" stroke-linejoin="round"/>
<mask id="mask0_428_710" style="mask-type:luminance" maskUnits="userSpaceOnUse" x="13" y="13" width="14" height="4">
<path d="M13 14.0002C13 12.0002 15 14.0002 19.5 14.0002C24 14.0002 27 12.0002 27 14.0002V15.0002C27 16.5002 25 17.0002 20.5 17.0002C16 17.0002 13 17.0002 13 15.0002V14.0002Z" fill="white"/>
</mask>
<g mask="url(#mask0_428_710)">
<path d="M27.5 12.5V16.5H12.5V12.5H27.5Z" fill="white" stroke="white"/>
</g>
<mask id="mask1_428_710" style="mask-type:luminance" maskUnits="userSpaceOnUse" x="17" y="19" width="6" height="9">
<path d="M18.1249 26.15C18.0399 25.29 17.3999 19.98 17.3999 19.98C17.3999 19.98 19.3399 20.31 20.4999 19.73C21.6599 19.16 22.9799 19 22.9799 19C22.9799 19 22.3999 25.96 22.3499 26.46C22.2999 26.96 21.4499 27.3 20.9499 27.3H19.2299C18.7299 27.3 18.2099 27 18.1249 26.15Z" fill="white"/>
</mask>
<g mask="url(#mask1_428_710)">
<path d="M24 18H16V28H24V18Z" fill="white" fill-opacity="0.3"/>
</g>
</svg>
