<svg width="56" height="23" viewBox="0 0 56 23" fill="none" xmlns="http://www.w3.org/2000/svg">
<path d="M0.2 1.2H2.44V20.08H8.296V22H0.2V1.2ZM11.8175 1.2H14.0575V18C14.0575 18.7253 14.2175 19.3333 14.5375 19.824C14.8575 20.3147 15.5082 20.56 16.4895 20.56C17.1722 20.56 17.8015 20.3893 18.3775 20.048C18.9535 19.6853 19.4122 19.2587 19.7535 18.768C20.1162 18.256 20.2975 17.7867 20.2975 17.36V1.2H22.5375V22H21.5775L20.7455 19.952C20.2975 20.6773 19.7002 21.2853 18.9535 21.776C18.2282 22.2453 17.4175 22.48 16.5215 22.48C15.3695 22.48 14.4415 22.288 13.7375 21.904C13.0548 21.4987 12.5642 20.9547 12.2655 20.272C11.9668 19.5893 11.8175 18.832 11.8175 18V1.2ZM28.95 22V1.2H29.91L30.71 3.248C31.1367 2.50133 31.7127 1.89333 32.438 1.424C33.1633 0.954666 33.9633 0.719999 34.838 0.719999C35.99 0.719999 36.8967 0.933332 37.558 1.36C38.2193 1.78667 38.6887 2.352 38.966 3.056C39.414 2.37333 39.9793 1.81867 40.662 1.392C41.366 0.943999 42.1447 0.719999 42.998 0.719999C44.1287 0.719999 45.014 0.922666 45.654 1.328C46.3153 1.712 46.7847 2.24533 47.062 2.928C47.3607 3.58933 47.51 4.34667 47.51 5.2V22H45.27V5.2C45.27 4.47467 45.1207 3.86667 44.822 3.376C44.5233 2.88533 43.9047 2.64 42.966 2.64C42.3473 2.64 41.7607 2.82133 41.206 3.184C40.6513 3.52533 40.2033 3.952 39.862 4.464C39.5207 4.95467 39.35 5.41333 39.35 5.84V22H37.11V5.2C37.11 4.47467 36.9607 3.86667 36.662 3.376C36.3633 2.88533 35.7447 2.64 34.806 2.64C34.1873 2.64 33.6007 2.81067 33.046 3.152C32.4913 3.49333 32.0433 3.90933 31.702 4.4C31.3607 4.86933 31.19 5.31733 31.19 5.744V22H28.95ZM53.575 22V1.2H55.815V22H53.575Z" fill="#F1F1F1"/>
</svg>
