<svg width="114" height="24" viewBox="0 0 114 24" fill="none" xmlns="http://www.w3.org/2000/svg">
<path d="M0.5125 1.2H2.7525V20.08H8.6085V22H0.5125V1.2ZM12.13 1.2H14.37V18C14.37 18.7253 14.53 19.3333 14.85 19.824C15.17 20.3147 15.8207 20.56 16.802 20.56C17.4847 20.56 18.114 20.3893 18.69 20.048C19.266 19.6853 19.7247 19.2587 20.066 18.768C20.4287 18.256 20.61 17.7867 20.61 17.36V1.2H22.85V22H21.89L21.058 19.952C20.61 20.6773 20.0127 21.2853 19.266 21.776C18.5407 22.2453 17.73 22.48 16.834 22.48C15.682 22.48 14.754 22.288 14.05 21.904C13.3673 21.4987 12.8767 20.9547 12.578 20.272C12.2793 19.5893 12.13 18.832 12.13 18V1.2ZM29.2625 22V1.2H30.2225L31.0225 3.248C31.4492 2.50133 32.0252 1.89333 32.7505 1.424C33.4758 0.954666 34.2758 0.719999 35.1505 0.719999C36.3025 0.719999 37.2092 0.933332 37.8705 1.36C38.5318 1.78667 39.0012 2.352 39.2785 3.056C39.7265 2.37333 40.2918 1.81867 40.9745 1.392C41.6785 0.943999 42.4572 0.719999 43.3105 0.719999C44.4412 0.719999 45.3265 0.922666 45.9665 1.328C46.6278 1.712 47.0972 2.24533 47.3745 2.928C47.6732 3.58933 47.8225 4.34667 47.8225 5.2V22H45.5825V5.2C45.5825 4.47467 45.4332 3.86667 45.1345 3.376C44.8358 2.88533 44.2172 2.64 43.2785 2.64C42.6598 2.64 42.0732 2.82133 41.5185 3.184C40.9638 3.52533 40.5158 3.952 40.1745 4.464C39.8332 4.95467 39.6625 5.41333 39.6625 5.84V22H37.4225V5.2C37.4225 4.47467 37.2732 3.86667 36.9745 3.376C36.6758 2.88533 36.0572 2.64 35.1185 2.64C34.4998 2.64 33.9132 2.81067 33.3585 3.152C32.8038 3.49333 32.3558 3.90933 32.0145 4.4C31.6732 4.86933 31.5025 5.31733 31.5025 5.744V22H29.2625ZM53.8875 22V1.2H56.1275V22H53.8875ZM75.4395 20.592L74.8635 20.128C74.8742 19.968 74.8795 19.6907 74.8795 19.296C74.8902 18.8907 74.8955 18.4373 74.8955 17.936C74.8955 17.4347 74.8955 16.944 74.8955 16.464C74.8955 15.984 74.8955 15.584 74.8955 15.264C74.8955 14.8693 74.8902 14.432 74.8795 13.952C74.8795 13.4613 74.8795 12.9867 74.8795 12.528C74.8795 12.0693 74.8742 11.6907 74.8635 11.392H75.9355C75.9355 11.552 75.9302 11.792 75.9195 12.112C75.9195 12.4213 75.9142 12.768 75.9035 13.152C75.9035 13.536 75.9035 13.9147 75.9035 14.288C75.9035 14.6507 75.9035 14.9653 75.9035 15.232V19.248C76.3515 19.056 76.8582 18.8107 77.4235 18.512C77.9995 18.2133 78.5755 17.8933 79.1515 17.552C79.7275 17.2107 80.2502 16.8853 80.7195 16.576C81.1888 16.256 81.5408 15.9787 81.7755 15.744C81.7755 15.8187 81.7915 15.9413 81.8235 16.112C81.8662 16.272 81.9088 16.4267 81.9515 16.576C82.0048 16.7253 82.0368 16.8213 82.0475 16.864C81.7702 17.0987 81.4182 17.3547 80.9915 17.632C80.5648 17.9093 80.0955 18.1973 79.5835 18.496C79.0822 18.784 78.5755 19.0667 78.0635 19.344C77.5515 19.6107 77.0662 19.856 76.6075 20.08C76.1595 20.2933 75.7702 20.464 75.4395 20.592ZM68.4155 21.264C68.3835 21.2107 68.3195 21.1307 68.2235 21.024C68.1275 20.9067 68.0262 20.7947 67.9195 20.688C67.8235 20.5707 67.7435 20.4907 67.6795 20.448C68.8315 19.8293 69.7115 19.1093 70.3195 18.288C70.9382 17.456 71.3275 16.5173 71.4875 15.472C71.6475 14.4267 71.6315 13.2747 71.4395 12.016L72.4315 11.92C72.7622 14.032 72.6182 15.8507 71.9995 17.376C71.3915 18.9013 70.1968 20.1973 68.4155 21.264ZM93.1835 21.92C92.9808 21.7387 92.6875 21.5253 92.3035 21.28C91.9302 21.024 91.5088 20.7627 91.0395 20.496C90.5808 20.2187 90.1062 19.952 89.6155 19.696C89.1355 19.4293 88.6768 19.2 88.2395 19.008C87.8022 18.8053 87.4288 18.656 87.1195 18.56L87.7275 17.68C88.1862 17.84 88.6982 18.0587 89.2635 18.336C89.8395 18.6027 90.4155 18.896 90.9915 19.216C91.5782 19.5253 92.1222 19.8347 92.6235 20.144C93.1248 20.4427 93.5248 20.7147 93.8235 20.96L93.1835 21.92ZM92.4155 16.816C92.2022 16.6453 91.8928 16.448 91.4875 16.224C91.0822 15.9893 90.6395 15.7547 90.1595 15.52C89.6795 15.2747 89.2208 15.056 88.7835 14.864C88.3568 14.672 88.0048 14.5387 87.7275 14.464L88.3035 13.568C88.6235 13.6747 88.9915 13.8187 89.4075 14C89.8342 14.1813 90.2715 14.384 90.7195 14.608C91.1675 14.8213 91.5888 15.04 91.9835 15.264C92.3888 15.4773 92.7248 15.6747 92.9915 15.856L92.4155 16.816ZM93.5035 13.184C93.2902 13.024 92.9755 12.832 92.5595 12.608C92.1542 12.3733 91.7115 12.1387 91.2315 11.904C90.7515 11.6587 90.2928 11.44 89.8555 11.248C89.4288 11.056 89.0822 10.9173 88.8155 10.832L89.3915 9.968C89.7008 10.0747 90.0742 10.224 90.5115 10.416C90.9488 10.608 91.3968 10.816 91.8555 11.04C92.3248 11.264 92.7515 11.4827 93.1355 11.696C93.5302 11.8987 93.8395 12.0747 94.0635 12.224L93.5035 13.184ZM104.448 22.688V21.872H108.8V20.384H105.136V19.584H108.8V18.384H105.648V13.44H108.8V12.416H104.768V11.6H108.8V10.24C108.213 10.2827 107.642 10.32 107.088 10.352C106.544 10.3733 106.048 10.384 105.6 10.384C105.6 10.3307 105.578 10.24 105.536 10.112C105.504 9.984 105.466 9.856 105.424 9.728C105.392 9.6 105.365 9.52 105.344 9.488C105.877 9.488 106.48 9.47733 107.152 9.456C107.824 9.424 108.506 9.38133 109.2 9.328C109.904 9.27467 110.554 9.21067 111.152 9.136C111.76 9.05067 112.261 8.96 112.656 8.864L113.152 9.712C112.725 9.79733 112.218 9.87733 111.632 9.952C111.045 10.0267 110.432 10.096 109.792 10.16V11.6H113.808V12.416H109.792V13.44H112.96V18.384H109.792V19.584H113.456V20.384H109.792V21.872H113.904V22.688H104.448ZM102.016 23.2V16.064C101.717 16.768 101.37 17.456 100.976 18.128C100.581 18.8 100.202 19.36 99.8395 19.808C99.8075 19.7653 99.7328 19.7067 99.6155 19.632C99.4982 19.5573 99.3808 19.4827 99.2635 19.408C99.1568 19.3333 99.0822 19.2907 99.0395 19.28C99.3275 18.9707 99.6208 18.592 99.9195 18.144C100.218 17.696 100.506 17.216 100.784 16.704C101.072 16.1813 101.322 15.664 101.536 15.152C101.749 14.6293 101.909 14.144 102.016 13.696H99.4715V12.8H102.016V10.576C101.29 10.768 100.57 10.9227 99.8555 11.04C99.8448 10.9867 99.8128 10.9013 99.7595 10.784C99.7168 10.656 99.6688 10.5333 99.6155 10.416C99.5728 10.288 99.5408 10.208 99.5195 10.176C100.032 10.112 100.592 10.0107 101.2 9.872C101.818 9.72267 102.41 9.552 102.976 9.36C103.541 9.15733 104.005 8.95467 104.368 8.752L104.944 9.504C104.378 9.80267 103.728 10.064 102.992 10.288V12.8H104.96V13.696H102.992V14.992C103.162 15.2373 103.381 15.5253 103.648 15.856C103.925 16.1867 104.213 16.5013 104.512 16.8C104.81 17.088 105.072 17.312 105.296 17.472C105.264 17.4933 105.2 17.5573 105.104 17.664C105.018 17.76 104.933 17.856 104.848 17.952C104.762 18.048 104.704 18.1173 104.672 18.16C104.437 17.9467 104.165 17.6693 103.856 17.328C103.546 16.9867 103.258 16.6293 102.992 16.256V23.2H102.016ZM109.792 17.664H112.032V16.256H109.792V17.664ZM109.792 15.552H112.032V14.16H109.792V15.552ZM106.592 17.664H108.8V16.256H106.592V17.664ZM106.592 15.552H108.8V14.16H106.592V15.552Z" fill="#F1F1F1"/>
</svg>
