<svg width="146" height="24" viewBox="0 0 146 24" fill="none" xmlns="http://www.w3.org/2000/svg">
<path d="M0.45 22V1.2H5.282C6.98867 1.2 8.258 1.60533 9.09 2.416C9.94333 3.20533 10.37 4.29333 10.37 5.68V10.16C10.37 11.2053 10.1353 12.0907 9.666 12.816C9.19667 13.52 8.49267 14.0213 7.554 14.32L11.49 22H9.026L5.282 14.64H2.69V22H0.45ZM8.13 5.68C8.13 4.89067 7.88467 4.272 7.394 3.824C6.92467 3.35467 6.22067 3.12 5.282 3.12H2.69V12.72H5.282C6.242 12.72 6.95667 12.496 7.426 12.048C7.89533 11.5787 8.13 10.9493 8.13 10.16V5.68ZM24.9413 22L24.1093 19.952C23.6826 20.6987 23.1066 21.3067 22.3813 21.776C21.6559 22.2453 20.8453 22.48 19.9493 22.48C18.8186 22.48 17.9119 22.288 17.2293 21.904C16.5466 21.4987 16.0559 20.9547 15.7573 20.272C15.4799 19.5893 15.3413 18.832 15.3413 18V14.8C15.3413 13.9467 15.4799 13.1893 15.7573 12.528C16.0559 11.8453 16.5466 11.312 17.2293 10.928C17.9119 10.5227 18.8186 10.32 19.9493 10.32H23.6613V5.072C23.6613 4.32533 23.4159 3.73867 22.9253 3.312C22.4559 2.864 21.7306 2.64 20.7493 2.64C19.7893 2.64 19.0746 2.864 18.6053 3.312C18.1359 3.73867 17.9013 4.32533 17.9013 5.072V6.96H15.6613V5.2C15.6613 3.792 16.0773 2.69333 16.9093 1.904C17.7413 1.11467 19.0213 0.719999 20.7493 0.719999C22.4773 0.719999 23.7679 1.11467 24.6213 1.904C25.4746 2.69333 25.9013 3.792 25.9013 5.2V22H24.9413ZM23.6613 12.24H19.9493C18.9893 12.24 18.3493 12.4853 18.0293 12.976C17.7306 13.4667 17.5813 14.0747 17.5813 14.8V18C17.5813 18.7253 17.7306 19.3333 18.0293 19.824C18.3493 20.3147 18.9893 20.56 19.9493 20.56C20.5893 20.56 21.1759 20.3893 21.7093 20.048C22.2639 19.7067 22.7226 19.3013 23.0853 18.832C23.4479 18.3413 23.6399 17.8827 23.6613 17.456V12.24ZM30.3813 1.2H40.8453V3.12L32.2373 20.08H40.6853V22H29.9013V20.08L38.5093 3.12H30.3813V1.2ZM45.325 22V1.2H46.285L47.085 3.248C47.5117 2.50133 48.0877 1.89333 48.813 1.424C49.5383 0.954666 50.3383 0.719999 51.213 0.719999C52.365 0.719999 53.2717 0.933332 53.933 1.36C54.5943 1.78667 55.0637 2.352 55.341 3.056C55.789 2.37333 56.3543 1.81867 57.037 1.392C57.741 0.943999 58.5197 0.719999 59.373 0.719999C60.5037 0.719999 61.389 0.922666 62.029 1.328C62.6903 1.712 63.1597 2.24533 63.437 2.928C63.7357 3.58933 63.885 4.34667 63.885 5.2V22H61.645V5.2C61.645 4.47467 61.4957 3.86667 61.197 3.376C60.8983 2.88533 60.2797 2.64 59.341 2.64C58.7223 2.64 58.1357 2.82133 57.581 3.184C57.0263 3.52533 56.5783 3.952 56.237 4.464C55.8957 4.95467 55.725 5.41333 55.725 5.84V22H53.485V5.2C53.485 4.47467 53.3357 3.86667 53.037 3.376C52.7383 2.88533 52.1197 2.64 51.181 2.64C50.5623 2.64 49.9757 2.81067 49.421 3.152C48.8663 3.49333 48.4183 3.90933 48.077 4.4C47.7357 4.86933 47.565 5.31733 47.565 5.744V22H45.325ZM69.95 22V1.2H72.19V22H69.95ZM87.55 22.128C87.5287 22.0747 87.4753 21.984 87.39 21.856C87.3153 21.728 87.2353 21.6 87.15 21.472C87.0753 21.3333 87.0113 21.2373 86.958 21.184C88.974 20.5867 90.6113 19.7173 91.87 18.576C93.1287 17.424 94.014 16.0533 94.526 14.464C94.078 14.4853 93.534 14.5173 92.894 14.56C92.254 14.592 91.5767 14.624 90.862 14.656C90.1473 14.688 89.4487 14.72 88.766 14.752C88.094 14.784 87.4967 14.8107 86.974 14.832C86.462 14.8533 86.0833 14.8693 85.838 14.88L85.742 13.808C85.9767 13.8187 86.3447 13.824 86.846 13.824C87.3473 13.8133 87.9233 13.7973 88.574 13.776C89.2247 13.7547 89.8967 13.7333 90.59 13.712C91.294 13.68 91.9553 13.6533 92.574 13.632C93.2033 13.6 93.742 13.568 94.19 13.536C94.6487 13.504 94.9527 13.4773 95.102 13.456L95.71 13.824C95.2727 15.7867 94.366 17.472 92.99 18.88C91.6247 20.288 89.8113 21.3707 87.55 22.128ZM87.246 11.28V10.272C87.79 10.2827 88.366 10.288 88.974 10.288C89.5927 10.288 90.1793 10.288 90.734 10.288C91.2673 10.288 91.838 10.288 92.446 10.288C93.0647 10.2773 93.71 10.272 94.382 10.272V11.28C93.71 11.2693 93.0753 11.264 92.478 11.264C91.8807 11.264 91.2993 11.264 90.734 11.264C90.2327 11.264 89.6567 11.264 89.006 11.264C88.366 11.264 87.7793 11.2693 87.246 11.28ZM101.358 21.376C101.326 21.3227 101.267 21.2373 101.182 21.12C101.097 20.992 101.006 20.8693 100.91 20.752C100.825 20.624 100.755 20.5387 100.702 20.496C101.534 20.1333 102.371 19.6693 103.214 19.104C104.057 18.5387 104.857 17.9093 105.614 17.216C106.382 16.512 107.07 15.7707 107.678 14.992C108.297 14.2027 108.798 13.408 109.182 12.608C108.734 12.64 108.195 12.6773 107.566 12.72C106.947 12.752 106.307 12.7893 105.646 12.832C104.985 12.864 104.366 12.896 103.79 12.928C103.225 12.9493 102.766 12.9707 102.414 12.992L102.286 11.936C102.531 11.936 102.905 11.9307 103.406 11.92C103.918 11.8987 104.494 11.8773 105.134 11.856C105.774 11.824 106.409 11.792 107.038 11.76C107.667 11.7173 108.233 11.68 108.734 11.648C109.235 11.616 109.603 11.584 109.838 11.552L110.526 11.984C110.27 12.6987 109.929 13.408 109.502 14.112C109.075 14.8053 108.59 15.4827 108.046 16.144C108.387 16.4213 108.761 16.7413 109.166 17.104C109.582 17.4667 109.993 17.8453 110.398 18.24C110.803 18.6347 111.182 19.0187 111.534 19.392C111.897 19.7547 112.195 20.08 112.43 20.368C112.334 20.432 112.185 20.5547 111.982 20.736C111.79 20.9067 111.651 21.0347 111.566 21.12C111.353 20.832 111.075 20.5013 110.734 20.128C110.393 19.744 110.025 19.3547 109.63 18.96C109.235 18.5653 108.841 18.1867 108.446 17.824C108.062 17.4613 107.71 17.1467 107.39 16.88C106.505 17.8293 105.534 18.6933 104.478 19.472C103.433 20.24 102.393 20.8747 101.358 21.376ZM112.302 12.544C112.174 12.32 111.998 12.0693 111.774 11.792C111.55 11.5147 111.315 11.2533 111.07 11.008C110.835 10.752 110.622 10.544 110.43 10.384L110.99 9.936C111.171 10.0853 111.385 10.2987 111.63 10.576C111.886 10.8427 112.131 11.1147 112.366 11.392C112.601 11.6693 112.777 11.904 112.894 12.096L112.302 12.544ZM113.614 11.424C113.475 11.2 113.289 10.9547 113.054 10.688C112.83 10.4213 112.595 10.1653 112.35 9.92C112.105 9.664 111.881 9.46133 111.678 9.312L112.222 8.864C112.403 9.01333 112.622 9.22133 112.878 9.488C113.134 9.744 113.385 10.0107 113.63 10.288C113.875 10.5547 114.062 10.7787 114.19 10.96L113.614 11.424ZM125.246 21.92C125.043 21.7387 124.75 21.5253 124.366 21.28C123.993 21.024 123.571 20.7627 123.102 20.496C122.643 20.2187 122.169 19.952 121.678 19.696C121.198 19.4293 120.739 19.2 120.302 19.008C119.865 18.8053 119.491 18.656 119.182 18.56L119.79 17.68C120.249 17.84 120.761 18.0587 121.326 18.336C121.902 18.6027 122.478 18.896 123.054 19.216C123.641 19.5253 124.185 19.8347 124.686 20.144C125.187 20.4427 125.587 20.7147 125.886 20.96L125.246 21.92ZM124.478 16.816C124.265 16.6453 123.955 16.448 123.55 16.224C123.145 15.9893 122.702 15.7547 122.222 15.52C121.742 15.2747 121.283 15.056 120.846 14.864C120.419 14.672 120.067 14.5387 119.79 14.464L120.366 13.568C120.686 13.6747 121.054 13.8187 121.47 14C121.897 14.1813 122.334 14.384 122.782 14.608C123.23 14.8213 123.651 15.04 124.046 15.264C124.451 15.4773 124.787 15.6747 125.054 15.856L124.478 16.816ZM125.566 13.184C125.353 13.024 125.038 12.832 124.622 12.608C124.217 12.3733 123.774 12.1387 123.294 11.904C122.814 11.6587 122.355 11.44 121.918 11.248C121.491 11.056 121.145 10.9173 120.878 10.832L121.454 9.968C121.763 10.0747 122.137 10.224 122.574 10.416C123.011 10.608 123.459 10.816 123.918 11.04C124.387 11.264 124.814 11.4827 125.198 11.696C125.593 11.8987 125.902 12.0747 126.126 12.224L125.566 13.184ZM136.51 22.688V21.872H140.862V20.384H137.198V19.584H140.862V18.384H137.71V13.44H140.862V12.416H136.83V11.6H140.862V10.24C140.275 10.2827 139.705 10.32 139.15 10.352C138.606 10.3733 138.11 10.384 137.662 10.384C137.662 10.3307 137.641 10.24 137.598 10.112C137.566 9.984 137.529 9.856 137.486 9.728C137.454 9.6 137.427 9.52 137.406 9.488C137.939 9.488 138.542 9.47733 139.214 9.456C139.886 9.424 140.569 9.38133 141.262 9.328C141.966 9.27467 142.617 9.21067 143.214 9.136C143.822 9.05067 144.323 8.96 144.718 8.864L145.214 9.712C144.787 9.79733 144.281 9.87733 143.694 9.952C143.107 10.0267 142.494 10.096 141.854 10.16V11.6H145.87V12.416H141.854V13.44H145.022V18.384H141.854V19.584H145.518V20.384H141.854V21.872H145.966V22.688H136.51ZM134.078 23.2V16.064C133.779 16.768 133.433 17.456 133.038 18.128C132.643 18.8 132.265 19.36 131.902 19.808C131.87 19.7653 131.795 19.7067 131.678 19.632C131.561 19.5573 131.443 19.4827 131.326 19.408C131.219 19.3333 131.145 19.2907 131.102 19.28C131.39 18.9707 131.683 18.592 131.982 18.144C132.281 17.696 132.569 17.216 132.846 16.704C133.134 16.1813 133.385 15.664 133.598 15.152C133.811 14.6293 133.971 14.144 134.078 13.696H131.534V12.8H134.078V10.576C133.353 10.768 132.633 10.9227 131.918 11.04C131.907 10.9867 131.875 10.9013 131.822 10.784C131.779 10.656 131.731 10.5333 131.678 10.416C131.635 10.288 131.603 10.208 131.582 10.176C132.094 10.112 132.654 10.0107 133.262 9.872C133.881 9.72267 134.473 9.552 135.038 9.36C135.603 9.15733 136.067 8.95467 136.43 8.752L137.006 9.504C136.441 9.80267 135.79 10.064 135.054 10.288V12.8H137.022V13.696H135.054V14.992C135.225 15.2373 135.443 15.5253 135.71 15.856C135.987 16.1867 136.275 16.5013 136.574 16.8C136.873 17.088 137.134 17.312 137.358 17.472C137.326 17.4933 137.262 17.5573 137.166 17.664C137.081 17.76 136.995 17.856 136.91 17.952C136.825 18.048 136.766 18.1173 136.734 18.16C136.499 17.9467 136.227 17.6693 135.918 17.328C135.609 16.9867 135.321 16.6293 135.054 16.256V23.2H134.078ZM141.854 17.664H144.094V16.256H141.854V17.664ZM141.854 15.552H144.094V14.16H141.854V15.552ZM138.654 17.664H140.862V16.256H138.654V17.664ZM138.654 15.552H140.862V14.16H138.654V15.552Z" fill="#F1F1F1"/>
</svg>
