<svg width="72" height="23" viewBox="0 0 72 23" fill="none" xmlns="http://www.w3.org/2000/svg">
<path d="M0.1375 22V1.2H4.9695C6.67617 1.2 7.9455 1.60533 8.7775 2.416C9.63083 3.20533 10.0575 4.29333 10.0575 5.68V10.16C10.0575 11.2053 9.82283 12.0907 9.3535 12.816C8.88417 13.52 8.18017 14.0213 7.2415 14.32L11.1775 22H8.7135L4.9695 14.64H2.3775V22H0.1375ZM7.8175 5.68C7.8175 4.89067 7.57217 4.272 7.0815 3.824C6.61217 3.35467 5.90817 3.12 4.9695 3.12H2.3775V12.72H4.9695C5.9295 12.72 6.64417 12.496 7.1135 12.048C7.58283 11.5787 7.8175 10.9493 7.8175 10.16V5.68ZM24.6288 22L23.7968 19.952C23.3701 20.6987 22.7941 21.3067 22.0688 21.776C21.3434 22.2453 20.5328 22.48 19.6368 22.48C18.5061 22.48 17.5994 22.288 16.9168 21.904C16.2341 21.4987 15.7434 20.9547 15.4448 20.272C15.1674 19.5893 15.0288 18.832 15.0288 18V14.8C15.0288 13.9467 15.1674 13.1893 15.4448 12.528C15.7434 11.8453 16.2341 11.312 16.9168 10.928C17.5994 10.5227 18.5061 10.32 19.6368 10.32H23.3488V5.072C23.3488 4.32533 23.1034 3.73867 22.6128 3.312C22.1434 2.864 21.4181 2.64 20.4368 2.64C19.4768 2.64 18.7621 2.864 18.2928 3.312C17.8234 3.73867 17.5888 4.32533 17.5888 5.072V6.96H15.3488V5.2C15.3488 3.792 15.7648 2.69333 16.5968 1.904C17.4288 1.11467 18.7088 0.719999 20.4368 0.719999C22.1648 0.719999 23.4554 1.11467 24.3088 1.904C25.1621 2.69333 25.5888 3.792 25.5888 5.2V22H24.6288ZM23.3488 12.24H19.6368C18.6768 12.24 18.0368 12.4853 17.7168 12.976C17.4181 13.4667 17.2688 14.0747 17.2688 14.8V18C17.2688 18.7253 17.4181 19.3333 17.7168 19.824C18.0368 20.3147 18.6768 20.56 19.6368 20.56C20.2768 20.56 20.8634 20.3893 21.3968 20.048C21.9514 19.7067 22.4101 19.3013 22.7728 18.832C23.1354 18.3413 23.3274 17.8827 23.3488 17.456V12.24ZM30.0688 1.2H40.5328V3.12L31.9248 20.08H40.3728V22H29.5888V20.08L38.1968 3.12H30.0688V1.2ZM45.0125 22V1.2H45.9725L46.7725 3.248C47.1992 2.50133 47.7752 1.89333 48.5005 1.424C49.2258 0.954666 50.0258 0.719999 50.9005 0.719999C52.0525 0.719999 52.9592 0.933332 53.6205 1.36C54.2818 1.78667 54.7512 2.352 55.0285 3.056C55.4765 2.37333 56.0418 1.81867 56.7245 1.392C57.4285 0.943999 58.2072 0.719999 59.0605 0.719999C60.1912 0.719999 61.0765 0.922666 61.7165 1.328C62.3778 1.712 62.8472 2.24533 63.1245 2.928C63.4232 3.58933 63.5725 4.34667 63.5725 5.2V22H61.3325V5.2C61.3325 4.47467 61.1832 3.86667 60.8845 3.376C60.5858 2.88533 59.9672 2.64 59.0285 2.64C58.4098 2.64 57.8232 2.82133 57.2685 3.184C56.7138 3.52533 56.2658 3.952 55.9245 4.464C55.5832 4.95467 55.4125 5.41333 55.4125 5.84V22H53.1725V5.2C53.1725 4.47467 53.0232 3.86667 52.7245 3.376C52.4258 2.88533 51.8072 2.64 50.8685 2.64C50.2498 2.64 49.6632 2.81067 49.1085 3.152C48.5538 3.49333 48.1058 3.90933 47.7645 4.4C47.4232 4.86933 47.2525 5.31733 47.2525 5.744V22H45.0125ZM69.6375 22V1.2H71.8775V22H69.6375Z" fill="#F1F1F1"/>
</svg>
