<svg width="71" height="23" viewBox="0 0 71 23" fill="none" xmlns="http://www.w3.org/2000/svg">
<path d="M10.7231 3.12H6.56313V22H4.32313V3.12H0.163125V1.2H10.7231V3.12ZM14.8719 22V1.2H17.1119V10.48H23.4159V1.2H25.6559V22H23.4159V12.4H17.1119V22H14.8719ZM41.0194 22L40.1874 19.952C39.7607 20.6987 39.1847 21.3067 38.4594 21.776C37.734 22.2453 36.9234 22.48 36.0274 22.48C34.8967 22.48 33.99 22.288 33.3074 21.904C32.6247 21.4987 32.134 20.9547 31.8354 20.272C31.558 19.5893 31.4194 18.832 31.4194 18V14.8C31.4194 13.9467 31.558 13.1893 31.8354 12.528C32.134 11.8453 32.6247 11.312 33.3074 10.928C33.99 10.5227 34.8967 10.32 36.0274 10.32H39.7394V5.072C39.7394 4.32533 39.494 3.73867 39.0034 3.312C38.534 2.864 37.8087 2.64 36.8274 2.64C35.8674 2.64 35.1527 2.864 34.6834 3.312C34.214 3.73867 33.9794 4.32533 33.9794 5.072V6.96H31.7394V5.2C31.7394 3.792 32.1554 2.69333 32.9874 1.904C33.8194 1.11467 35.0994 0.719999 36.8274 0.719999C38.5554 0.719999 39.846 1.11467 40.6994 1.904C41.5527 2.69333 41.9794 3.792 41.9794 5.2V22H41.0194ZM39.7394 12.24H36.0274C35.0674 12.24 34.4274 12.4853 34.1074 12.976C33.8087 13.4667 33.6594 14.0747 33.6594 14.8V18C33.6594 18.7253 33.8087 19.3333 34.1074 19.824C34.4274 20.3147 35.0674 20.56 36.0274 20.56C36.6674 20.56 37.254 20.3893 37.7874 20.048C38.342 19.7067 38.8007 19.3013 39.1634 18.832C39.526 18.3413 39.718 17.8827 39.7394 17.456V12.24ZM48.0594 1.2H50.2994V20.08H56.1554V22H48.0594V1.2ZM67.8369 16.24H70.0769V18C70.0769 19.3867 69.6502 20.4853 68.7969 21.296C67.9435 22.0853 66.6209 22.48 64.8289 22.48C63.0369 22.48 61.7035 22.0853 60.8289 21.296C59.9542 20.4853 59.5169 19.3867 59.5169 18V5.2C59.5169 3.81333 59.9435 2.72533 60.7969 1.936C61.6502 1.12533 62.9729 0.719999 64.7649 0.719999C66.5569 0.719999 67.8902 1.12533 68.7649 1.936C69.6395 2.72533 70.0769 3.81333 70.0769 5.2V12.24H61.7569V18C61.7569 18.7893 62.0022 19.4187 62.4929 19.888C63.0049 20.336 63.7835 20.56 64.8289 20.56C65.8529 20.56 66.6102 20.336 67.1009 19.888C67.5915 19.4187 67.8369 18.7893 67.8369 18V16.24ZM61.7569 10.32H67.8369V5.2C67.8369 4.38933 67.5809 3.76 67.0689 3.312C66.5782 2.864 65.8102 2.64 64.7649 2.64C63.7409 2.64 62.9835 2.864 62.4929 3.312C62.0022 3.76 61.7569 4.38933 61.7569 5.2V10.32Z" fill="#F1F1F1"/>
</svg>
