<svg width="144" height="24" viewBox="0 0 144 24" fill="none" xmlns="http://www.w3.org/2000/svg">
<path d="M11.0356 3.12H6.87563V22H4.63563V3.12H0.475625V1.2H11.0356V3.12ZM15.1844 22V1.2H17.4244V10.48H23.7284V1.2H25.9684V22H23.7284V12.4H17.4244V22H15.1844ZM41.3319 22L40.4999 19.952C40.0732 20.6987 39.4972 21.3067 38.7719 21.776C38.0465 22.2453 37.2359 22.48 36.3399 22.48C35.2092 22.48 34.3025 22.288 33.6199 21.904C32.9372 21.4987 32.4465 20.9547 32.1479 20.272C31.8705 19.5893 31.7319 18.832 31.7319 18V14.8C31.7319 13.9467 31.8705 13.1893 32.1479 12.528C32.4465 11.8453 32.9372 11.312 33.6199 10.928C34.3025 10.5227 35.2092 10.32 36.3399 10.32H40.0519V5.072C40.0519 4.32533 39.8065 3.73867 39.3159 3.312C38.8465 2.864 38.1212 2.64 37.1399 2.64C36.1799 2.64 35.4652 2.864 34.9959 3.312C34.5265 3.73867 34.2919 4.32533 34.2919 5.072V6.96H32.0519V5.2C32.0519 3.792 32.4679 2.69333 33.2999 1.904C34.1319 1.11467 35.4119 0.719999 37.1399 0.719999C38.8679 0.719999 40.1585 1.11467 41.0119 1.904C41.8652 2.69333 42.2919 3.792 42.2919 5.2V22H41.3319ZM40.0519 12.24H36.3399C35.3799 12.24 34.7399 12.4853 34.4199 12.976C34.1212 13.4667 33.9719 14.0747 33.9719 14.8V18C33.9719 18.7253 34.1212 19.3333 34.4199 19.824C34.7399 20.3147 35.3799 20.56 36.3399 20.56C36.9799 20.56 37.5665 20.3893 38.0999 20.048C38.6545 19.7067 39.1132 19.3013 39.4759 18.832C39.8385 18.3413 40.0305 17.8827 40.0519 17.456V12.24ZM48.3719 1.2H50.6119V20.08H56.4679V22H48.3719V1.2ZM68.1494 16.24H70.3894V18C70.3894 19.3867 69.9627 20.4853 69.1094 21.296C68.256 22.0853 66.9334 22.48 65.1414 22.48C63.3494 22.48 62.016 22.0853 61.1414 21.296C60.2667 20.4853 59.8294 19.3867 59.8294 18V5.2C59.8294 3.81333 60.256 2.72533 61.1094 1.936C61.9627 1.12533 63.2854 0.719999 65.0774 0.719999C66.8694 0.719999 68.2027 1.12533 69.0774 1.936C69.952 2.72533 70.3894 3.81333 70.3894 5.2V12.24H62.0694V18C62.0694 18.7893 62.3147 19.4187 62.8054 19.888C63.3174 20.336 64.096 20.56 65.1414 20.56C66.1654 20.56 66.9227 20.336 67.4134 19.888C67.904 19.4187 68.1494 18.7893 68.1494 18V16.24ZM62.0694 10.32H68.1494V5.2C68.1494 4.38933 67.8934 3.76 67.3814 3.312C66.8907 2.864 66.1227 2.64 65.0774 2.64C64.0534 2.64 63.296 2.864 62.8054 3.312C62.3147 3.76 62.0694 4.38933 62.0694 5.2V10.32ZM83.2684 22.4C83.2364 22.3253 83.1777 22.224 83.0924 22.096C83.0177 21.968 82.943 21.8453 82.8684 21.728C82.7937 21.6107 82.735 21.536 82.6924 21.504C83.983 20.992 85.1937 20.3467 86.3244 19.568C87.4657 18.7787 88.4844 17.8987 89.3804 16.928C88.9857 16.6507 88.5857 16.4 88.1804 16.176C87.7857 15.9413 87.4177 15.744 87.0764 15.584L87.6524 14.8C88.0257 14.9707 88.415 15.1787 88.8204 15.424C89.2364 15.6587 89.6417 15.9093 90.0364 16.176C90.4737 15.6427 90.8684 15.088 91.2204 14.512C91.5724 13.9253 91.8817 13.328 92.1484 12.72C91.8177 12.7307 91.423 12.7467 90.9644 12.768C90.5164 12.7787 90.063 12.7947 89.6044 12.816C89.1457 12.8267 88.7297 12.8373 88.3564 12.848C87.9937 12.8587 87.7377 12.864 87.5884 12.864C87.0977 13.6213 86.5377 14.336 85.9084 15.008C85.279 15.68 84.5857 16.288 83.8284 16.832C83.7857 16.7787 83.711 16.704 83.6044 16.608C83.5084 16.5013 83.4124 16.4 83.3164 16.304C83.2204 16.1973 83.1457 16.128 83.0924 16.096C83.8604 15.5733 84.575 14.96 85.2364 14.256C85.8977 13.552 86.479 12.7947 86.9804 11.984C87.4817 11.1627 87.8657 10.336 88.1324 9.504L89.1244 9.824C88.9857 10.1867 88.8364 10.544 88.6764 10.896C88.5164 11.248 88.3404 11.5947 88.1484 11.936C88.5004 11.936 88.9004 11.9307 89.3484 11.92C89.7964 11.9093 90.2444 11.8987 90.6924 11.888C91.151 11.8667 91.567 11.8507 91.9404 11.84C92.3244 11.8187 92.6177 11.7973 92.8204 11.776L93.4604 12.144C93.151 12.9867 92.7777 13.792 92.3404 14.56C91.903 15.328 91.4177 16.0587 90.8844 16.752C91.3217 17.0613 91.7324 17.376 92.1164 17.696C92.511 18.0053 92.847 18.2987 93.1244 18.576C93.0817 18.608 93.007 18.6827 92.9004 18.8C92.7937 18.9067 92.6924 19.0187 92.5964 19.136C92.5004 19.2533 92.431 19.3387 92.3884 19.392C92.111 19.1147 91.7804 18.816 91.3964 18.496C91.023 18.1653 90.6284 17.8453 90.2124 17.536C89.295 18.5707 88.2497 19.4933 87.0764 20.304C85.903 21.1147 84.6337 21.8133 83.2684 22.4ZM98.0364 16.464V15.424C98.4097 15.424 98.9377 15.4293 99.6204 15.44C100.303 15.44 101.071 15.4453 101.924 15.456C102.778 15.456 103.658 15.456 104.564 15.456C105.471 15.456 106.346 15.456 107.188 15.456C108.031 15.456 108.783 15.456 109.444 15.456C110.106 15.4453 110.607 15.4347 110.948 15.424V16.464C110.596 16.4533 110.09 16.448 109.428 16.448C108.778 16.4373 108.036 16.432 107.204 16.432C106.383 16.4213 105.524 16.416 104.628 16.416C103.743 16.416 102.874 16.4213 102.02 16.432C101.178 16.432 100.41 16.4373 99.7164 16.448C99.023 16.448 98.463 16.4533 98.0364 16.464ZM116.756 20.688L116.212 20.272C116.212 20.144 116.212 19.9307 116.212 19.632C116.223 19.3227 116.228 18.9653 116.228 18.56C116.228 18.1547 116.228 17.7387 116.228 17.312C116.239 16.8853 116.244 16.4853 116.244 16.112C116.244 15.7387 116.244 15.4347 116.244 15.2C116.244 14.944 116.244 14.6133 116.244 14.208C116.244 13.8027 116.239 13.392 116.228 12.976C116.228 12.56 116.223 12.2027 116.212 11.904C116.212 11.5947 116.212 11.4187 116.212 11.376H117.284C117.274 11.536 117.263 11.776 117.252 12.096C117.252 12.4053 117.252 12.752 117.252 13.136C117.252 13.52 117.252 13.8933 117.252 14.256C117.252 14.6187 117.252 14.928 117.252 15.184V19.408C117.85 19.184 118.484 18.9227 119.156 18.624C119.839 18.3147 120.522 17.9787 121.204 17.616C121.898 17.2533 122.559 16.8853 123.188 16.512C123.828 16.128 124.41 15.7547 124.932 15.392C125.455 15.0187 125.882 14.672 126.212 14.352C126.212 14.416 126.228 14.5333 126.26 14.704C126.292 14.8747 126.33 15.0453 126.372 15.216C126.415 15.376 126.442 15.4827 126.452 15.536C125.93 15.9733 125.279 16.4373 124.5 16.928C123.722 17.4187 122.884 17.904 121.988 18.384C121.092 18.864 120.191 19.3067 119.284 19.712C118.378 20.1067 117.535 20.432 116.756 20.688ZM134.244 22.688V21.872H138.596V20.384H134.932V19.584H138.596V18.384H135.444V13.44H138.596V12.416H134.564V11.6H138.596V10.24C138.01 10.2827 137.439 10.32 136.884 10.352C136.34 10.3733 135.844 10.384 135.396 10.384C135.396 10.3307 135.375 10.24 135.332 10.112C135.3 9.984 135.263 9.856 135.22 9.728C135.188 9.6 135.162 9.52 135.14 9.488C135.674 9.488 136.276 9.47733 136.948 9.456C137.62 9.424 138.303 9.38133 138.996 9.328C139.7 9.27467 140.351 9.21067 140.948 9.136C141.556 9.05067 142.058 8.96 142.452 8.864L142.948 9.712C142.522 9.79733 142.015 9.87733 141.428 9.952C140.842 10.0267 140.228 10.096 139.588 10.16V11.6H143.604V12.416H139.588V13.44H142.756V18.384H139.588V19.584H143.252V20.384H139.588V21.872H143.7V22.688H134.244ZM131.812 23.2V16.064C131.514 16.768 131.167 17.456 130.772 18.128C130.378 18.8 129.999 19.36 129.636 19.808C129.604 19.7653 129.53 19.7067 129.412 19.632C129.295 19.5573 129.178 19.4827 129.06 19.408C128.954 19.3333 128.879 19.2907 128.836 19.28C129.124 18.9707 129.418 18.592 129.716 18.144C130.015 17.696 130.303 17.216 130.58 16.704C130.868 16.1813 131.119 15.664 131.332 15.152C131.546 14.6293 131.706 14.144 131.812 13.696H129.268V12.8H131.812V10.576C131.087 10.768 130.367 10.9227 129.652 11.04C129.642 10.9867 129.61 10.9013 129.556 10.784C129.514 10.656 129.466 10.5333 129.412 10.416C129.37 10.288 129.338 10.208 129.316 10.176C129.828 10.112 130.388 10.0107 130.996 9.872C131.615 9.72267 132.207 9.552 132.772 9.36C133.338 9.15733 133.802 8.95467 134.164 8.752L134.74 9.504C134.175 9.80267 133.524 10.064 132.788 10.288V12.8H134.756V13.696H132.788V14.992C132.959 15.2373 133.178 15.5253 133.444 15.856C133.722 16.1867 134.01 16.5013 134.308 16.8C134.607 17.088 134.868 17.312 135.092 17.472C135.06 17.4933 134.996 17.5573 134.9 17.664C134.815 17.76 134.73 17.856 134.644 17.952C134.559 18.048 134.5 18.1173 134.468 18.16C134.234 17.9467 133.962 17.6693 133.652 17.328C133.343 16.9867 133.055 16.6293 132.788 16.256V23.2H131.812ZM139.588 17.664H141.828V16.256H139.588V17.664ZM139.588 15.552H141.828V14.16H139.588V15.552ZM136.388 17.664H138.596V16.256H136.388V17.664ZM136.388 15.552H138.596V14.16H136.388V15.552Z" fill="#F1F1F1"/>
</svg>
